<svg id="goggles" xmlns="http://www.w3.org/2000/svg" viewBox="0 0 432.45 137.83"><defs><style>.cls-1{fill:#0074d9;stroke-width:5px;}.cls-1,.cls-2{stroke:#001f3f;}.cls-1,.cls-2,.cls-3,.cls-4{stroke-miterlimit:10;}.cls-2{fill:#d0ccd0;stroke-width:8px;}.cls-3,.cls-4{fill:none;stroke:#000;}.cls-4{stroke-width:14px;}.cls-5{font-size:48px;fill:#001f3f;font-family:IBMPlexSans-SemiBold, IBM Plex Sans SemiBold, IBM Plex Sans, sans;font-weight:600;}.cls-6{letter-spacing:-0.01em;}.cls-7{letter-spacing:0em;}.cls-8{letter-spacing:0em;}.cls-9{letter-spacing:0.01em;}</style></defs><title>LectureGogglesLargeLogo</title><path class="cls-1" d="M159.85,102.66c-14.7-1.83-19.84,36.8-48.35,51.84-20.84,11-52.3,6.89-65-10.15-13.21-17.75-3.08-47.13,1-55.85,3.21-6.87,13.6-23.54,31-33,11.14-6.06,20.41-4.53,38.84-5.79A676.73,676.73,0,0,0,186,41.52c42.55-7.54,53.7-17.9,66.78-9.44C266,40.65,267.5,59.62,268.2,68.38c1.72,21.89-6.25,56.23-32.86,66.31-20.52,7.78-44.54-1.77-57.73-13.58C166.9,111.51,166.81,103.52,159.85,102.66Z" transform="translate(-37.44 -26.42)"/><path class="cls-2" d="M174.73,104.6c-14.71-1.83-19.13,33.2-47.64,48.24-20.85,11-53,10.49-65.71-6.55-13.21-17.75.07-46.21,4.14-54.93C68.73,84.49,76.58,68.23,94,58.77c11.13-6.06,19.8-5.86,38.24-7.12a676.41,676.41,0,0,0,68.63-8.19c42.56-7.54,53.7-17.9,66.78-9.44,13.25,8.57,14.75,27.54,15.44,36.3,1.73,21.89-6.25,56.23-32.85,66.31-20.53,7.78-44.55-1.77-57.73-13.58C181.78,113.45,181.69,105.46,174.73,104.6Z" transform="translate(-37.44 -26.42)"/><path class="cls-3" d="M337.5,185.5" transform="translate(-37.44 -26.42)"/><path class="cls-4" d="M361,184" transform="translate(-37.44 -26.42)"/><text class="cls-5" transform="translate(253.79 43.53)"><tspan class="cls-6">L<tspan class="cls-7" x="24.53" y="0">ectu</tspan><tspan class="cls-8" x="122.11" y="0">r</tspan><tspan class="cls-7" x="140.74" y="0">e</tspan></tspan><tspan x="0" y="57.6">Go</tspan><tspan class="cls-9" x="61.2" y="57.6">g</tspan><tspan x="87.65" y="57.6">gles</tspan></text></svg>