<?xml version="1.0" encoding="utf-8"?>
<!-- Generator: Adobe Illustrator 23.0.1, SVG Export Plug-In . SVG Version: 6.00 Build 0)  -->
<svg version="1.1" id="Layer_1" xmlns="http://www.w3.org/2000/svg" xmlns:xlink="http://www.w3.org/1999/xlink" x="0px" y="0px"
	 viewBox="0 0 380.108 114.162" enable-background="new 0 0 380.108 114.162" xml:space="preserve">
<g>
	<g>
		<path fill="none" d="M86.079,70.629h-47.07l-1.185,3.011l-4.669,2.746v6.842h3.639l0.604,1.63c0.729,1.943,3.36,7.196,6.732,8.107
			c1.475,0.397,3.05-0.11,4.819-1.555c2.215-1.808,4.235-3.375,6.007-4.658c2.269-1.644,4.928-2.465,7.587-2.465
			c2.658,0,5.317,0.822,7.587,2.465c1.771,1.284,3.792,2.851,6.008,4.659c1.769,1.443,3.344,1.952,4.818,1.555
			c3.372-0.911,6.004-6.164,6.733-8.111l0.608-1.623l3.634-0.004v-6.841l-4.67-2.747L86.079,70.629z M42.806,83.971l-1.285-1.532
			l8.789-7.377l1.285,1.532L42.806,83.971z M48.074,85.674l-1.336-1.489l5.667-5.081l1.336,1.489L48.074,85.674z M73.364,83.441
			l-1.285-1.532l8.79-7.377l1.285,1.532L73.364,83.441z M78.631,85.145l-1.336-1.489l5.667-5.081l1.336,1.489L78.631,85.145z"/>
		<path fill="none" d="M110.771,40.443l-1.645-0.639v3.44l1.519-0.412c0.794-0.216,0.913-0.875,0.928-1.149
			C111.587,41.409,111.537,40.741,110.771,40.443z"/>
		<path fill="none" d="M37.024,57.258c5.693-2.225,15.009-3.571,25.553-3.571c10.464,0,19.754,1.334,25.458,3.537v-4.601
			l-25.939-9.592l-25.071,9.572V57.258z"/>
		<path fill="#001F3F" d="M112.581,35.782L64.796,17.225c-1.462-0.568-3.071-0.568-4.533,0L12.477,35.782
			c-2.565,0.997-4.129,3.416-3.984,6.164c0.145,2.749,1.955,4.99,4.61,5.711l18.921,5.137v13.914l4.086-3.355
			c2.824-2.319,12.822-4.666,26.467-4.666c13.505,0,23.506,2.326,26.405,4.623l4.053,3.211V52.794l9.236-2.507v-5.181L90.652,48.26
			L62.068,37.69L34.393,48.257l-19.979-5.424c-0.794-0.216-0.913-0.875-0.928-1.149c-0.015-0.273,0.035-0.942,0.802-1.24
			l47.787-18.558c0.146-0.057,0.3-0.085,0.454-0.085s0.309,0.028,0.456,0.086l41.142,15.977v5.163h0.009v19.418h-0.009v7.069
			c-0.903,0.736-1.491,1.843-1.491,3.098c0,2.217,1.797,4.014,4.013,4.014c2.217,0,4.014-1.797,4.014-4.014
			c0-1.276-0.607-2.4-1.536-3.135v-21.05l2.829-0.768c2.656-0.721,4.466-2.963,4.61-5.711
			C116.71,39.198,115.147,36.779,112.581,35.782z M62.095,43.031l25.939,9.592v4.601c-5.704-2.203-14.994-3.537-25.458-3.537
			c-10.544,0-19.859,1.347-25.553,3.571v-4.655L62.095,43.031z M111.573,41.683c-0.015,0.274-0.134,0.934-0.928,1.149l-1.519,0.412
			v-3.44l1.645,0.639C111.537,40.741,111.587,41.409,111.573,41.683z"/>
		<path fill="#0074D9" d="M89.486,65.629H35.603l-1.8,4.575l-5.647,3.322v14.701h5.248c1.314,2.809,4.425,8.205,9.408,9.561
			c2.132,0.582,5.475,0.617,9.3-2.503c2.141-1.748,4.086-3.256,5.779-4.483c2.783-2.016,6.523-2.016,9.307,0
			c1.693,1.228,3.639,2.736,5.78,4.483c2.649,2.162,5.068,2.808,7.014,2.808c0.861,0,1.631-0.127,2.285-0.305
			c4.983-1.355,8.094-6.752,9.408-9.561h5.248V73.526l-5.648-3.322L89.486,65.629z M91.933,83.227l-3.634,0.004l-0.608,1.623
			c-0.729,1.947-3.361,7.2-6.733,8.111c-1.475,0.397-3.05-0.111-4.818-1.555c-2.216-1.808-4.236-3.375-6.008-4.659
			c-2.27-1.643-4.929-2.465-7.587-2.465c-2.659,0-5.318,0.822-7.587,2.465c-1.771,1.283-3.792,2.851-6.007,4.658
			c-1.77,1.444-3.345,1.952-4.819,1.555c-3.372-0.911-6.004-6.164-6.732-8.107l-0.604-1.63h-3.639v-6.842l4.669-2.746l1.185-3.011
			h47.07l1.184,3.011l4.67,2.747V83.227z"/>
		
			<rect x="40.821" y="78.516" transform="matrix(0.766 -0.6429 0.6429 0.766 -40.2239 48.542)" fill="#001F3F" width="11.475" height="2"/>
		
			<rect x="46.434" y="81.389" transform="matrix(0.7444 -0.6678 0.6678 0.7444 -42.1738 54.6071)" fill="#001F3F" width="7.611" height="2.001"/>
		
			<rect x="71.378" y="77.987" transform="matrix(0.766 -0.6429 0.6429 0.766 -32.7307 68.0576)" fill="#001F3F" width="11.475" height="2"/>
		
			<rect x="76.991" y="80.86" transform="matrix(0.7444 -0.6678 0.6678 0.7444 -34.0094 74.8767)" fill="#001F3F" width="7.611" height="2.001"/>
	</g>
	<g>
		<g>
			<path fill="#0074D9" d="M135.647,27.576v29.416h18.32v6.208h-25.038V27.576H135.647z"/>
			<path fill="#0074D9" d="M185.264,63.201h-26.667c0-11.857,0-23.767,0-35.625h26.667v6.515h-20.001v8.193h19.288v6.26h-19.288
				v8.04h20.001V63.201z"/>
			<path fill="#0074D9" d="M221.853,58.722c-3.664,3.613-8.397,5.292-13.537,5.292c-13.232,0-18.83-9.11-18.881-18.372
				c-0.051-9.313,6.006-18.779,18.881-18.779c4.835,0,9.415,1.832,13.079,5.445l-4.478,4.326c-2.342-2.29-5.497-3.358-8.601-3.358
				c-8.6,0-12.316,6.412-12.264,12.367c0.051,5.904,3.461,12.061,12.264,12.061c3.105,0,6.616-1.272,8.957-3.613L221.853,58.722z"/>
			<path fill="#0074D9" d="M234.318,33.683H223.02v-6.108c10.28,0,18.983,0,29.314,0v6.108h-11.298v29.517h-6.718V33.683z"/>
			<path fill="#0074D9" d="M288.719,27.627v20.408c0,10.534-6.464,15.929-15.42,15.929c-8.55,0-15.827-5.191-15.827-15.929V27.627
				h6.667v20.408c0,6.412,3.664,9.822,9.211,9.822c5.548,0,8.703-3.715,8.703-9.822V27.627H288.719z"/>
			<path fill="#0074D9" d="M326.885,63.201h-7.99l-10.382-11.909h-6.464v11.909h-6.718V27.525c5.649,0,11.298,0.051,16.947,0.051
				c8.398,0.051,12.825,5.649,12.825,11.807c0,4.886-2.24,9.822-9.007,11.197l10.789,12.163V63.201z M302.05,33.836v11.399h10.229
				c4.275,0,6.107-2.849,6.107-5.699s-1.883-5.7-6.107-5.7H302.05z"/>
			<path fill="#0074D9" d="M356.196,63.201h-26.667c0-11.857,0-23.767,0-35.625h26.667v6.515h-20.001v8.193h19.288v6.26h-19.288
				v8.04h20.001V63.201z"/>
		</g>
		<g>
			<path fill="#001F3F" d="M145.335,76.535c-1.381-1.322-3.436-2.056-5.228-2.056c-4.405,0-7.077,3.348-7.077,7.577
				c0,3.377,1.968,6.871,7.077,6.871c1.616,0,3.025-0.352,4.64-1.644v-3.642h-5.257v-3.465h8.81v8.663
				c-2.026,2.319-4.581,3.7-8.193,3.7c-7.723,0-10.865-5.08-10.865-10.483c0-5.786,3.612-11.13,10.865-11.13
				c2.761,0,5.521,1.057,7.636,3.142L145.335,76.535z"/>
			<path fill="#001F3F" d="M186.359,81.909c-0.059,5.315-3.318,10.631-10.542,10.631c-7.224,0-10.571-5.197-10.571-10.601
				c0-5.403,3.465-10.836,10.571-10.836C182.895,71.103,186.418,76.535,186.359,81.909z M169.063,81.997
				c0.088,3.377,1.908,6.99,6.754,6.99s6.667-3.642,6.725-7.018c0.059-3.466-1.879-7.342-6.725-7.342S168.975,78.533,169.063,81.997
				z"/>
			<path fill="#001F3F" d="M219.162,76.535c-1.381-1.322-3.436-2.056-5.228-2.056c-4.405,0-7.077,3.348-7.077,7.577
				c0,3.377,1.968,6.871,7.077,6.871c1.616,0,3.025-0.352,4.64-1.644v-3.642h-5.257v-3.465h8.81v8.663
				c-2.026,2.319-4.581,3.7-8.193,3.7c-7.723,0-10.865-5.08-10.865-10.483c0-5.786,3.612-11.13,10.865-11.13
				c2.761,0,5.521,1.057,7.636,3.142L219.162,76.535z"/>
			<path fill="#001F3F" d="M255.253,76.535c-1.381-1.322-3.436-2.056-5.228-2.056c-4.405,0-7.077,3.348-7.077,7.577
				c0,3.377,1.968,6.871,7.077,6.871c1.616,0,3.025-0.352,4.64-1.644v-3.642h-5.257v-3.465h8.81v8.663
				c-2.026,2.319-4.581,3.7-8.193,3.7c-7.723,0-10.865-5.08-10.865-10.483c0-5.786,3.612-11.13,10.865-11.13
				c2.761,0,5.521,1.057,7.636,3.142L255.253,76.535z"/>
			<path fill="#001F3F" d="M279.95,71.514v16.973h10.572v3.583h-14.449V71.514H279.95z"/>
			<path fill="#001F3F" d="M323.266,92.07h-15.388c0-6.842,0-13.714,0-20.556h15.388v3.759h-11.541v4.728h11.13v3.612h-11.13v4.64
				h11.541V92.07z"/>
			<path fill="#001F3F" d="M354.247,76.477c-0.704-1.175-2.643-2.291-4.874-2.291c-2.878,0-4.258,1.204-4.258,2.731
				c0,1.792,2.114,2.291,4.581,2.585c4.287,0.528,8.281,1.645,8.281,6.549c0,4.581-4.052,6.549-8.633,6.549
				c-4.199,0-7.43-1.293-8.956-5.052l3.23-1.673c0.91,2.261,3.289,3.26,5.785,3.26c2.438,0,4.729-0.852,4.729-3.083
				c0-1.939-2.027-2.731-4.757-3.025c-4.2-0.499-8.076-1.616-8.076-6.226c0-4.229,4.17-5.961,7.958-5.991
				c3.201,0,6.519,0.91,8.076,4.082L354.247,76.477z"/>
		</g>
	</g>
</g>
</svg>
